<svg width="250" height="250" viewBox="0 0 250 250" fill="none" xmlns="http://www.w3.org/2000/svg">
<path d="M52.5 33.75C52.5 66.25 72.5 86.25 113.75 96.25L157.5 106.25C196.25 115 220 136.25 220 172.5C220 187.5 215 202.5 205 215C205 180 186.25 160 141.25 148.75L98.75 138.75C65 132.5 38.75 113.75 38.75 75C38.75 60 43.75 46.25 52.5 33.75Z" fill="#ED3E2F"/>
<path opacity="0.7" d="M178.75 163.75C197.5 175 206.25 191.25 206.25 215C191.25 233.75 163.75 245 132.5 245C78.75 245 41.25 218.75 33.75 173.75H85C91.25 195 108.75 203.75 132.5 203.75C160 205 178.75 190 178.75 163.75Z" fill="#ED3E2F"/>
<path opacity="0.7" d="M78.75 82.5C70 77.5 63.75 70 58.75 61.25C55 52.5 52.5 43.75 52.5 33.75C67.5 13.75 93.75 2.5 125 2.5C180 2.5 211.25 31.25 218.75 70H168.75C163.75 55 150 42.5 125 42.5C98.75 43.75 80 58.75 78.75 82.5Z" fill="#ED3E2F"/>
</svg>
